<mxfile host="Electron" agent="Mozilla/5.0 (Windows NT 10.0; Win64; x64) AppleWebKit/537.36 (KHTML, like Gecko) draw.io/28.1.2 Chrome/138.0.7204.243 Electron/37.4.0 Safari/537.36" version="28.1.2">
  <diagram name="Página-1" id="qiYNEbmK3Hn0WnYjRD4r">
    <mxGraphModel dx="872" dy="577" grid="1" gridSize="10" guides="1" tooltips="1" connect="1" arrows="1" fold="1" page="1" pageScale="1" pageWidth="827" pageHeight="1169" math="0" shadow="0">
      <root>
        <mxCell id="0" />
        <mxCell id="1" parent="0" />
        <mxCell id="hZaEi578BDS51XSkTux4-5" style="edgeStyle=orthogonalEdgeStyle;rounded=0;orthogonalLoop=1;jettySize=auto;html=1;dashed=1;" edge="1" parent="1" source="hZaEi578BDS51XSkTux4-1" target="hZaEi578BDS51XSkTux4-2">
          <mxGeometry relative="1" as="geometry" />
        </mxCell>
        <mxCell id="hZaEi578BDS51XSkTux4-6" value="Faz upload do arquivo" style="edgeLabel;html=1;align=center;verticalAlign=middle;resizable=0;points=[];" vertex="1" connectable="0" parent="hZaEi578BDS51XSkTux4-5">
          <mxGeometry x="0.0909" y="-1" relative="1" as="geometry">
            <mxPoint x="-12" y="-1" as="offset" />
          </mxGeometry>
        </mxCell>
        <mxCell id="hZaEi578BDS51XSkTux4-1" value="User" style="verticalLabelPosition=bottom;sketch=0;html=1;fillColor=#A153A0;strokeColor=#ffffff;verticalAlign=top;align=center;points=[[0,0.5,0],[0.125,0.25,0],[0.25,0,0],[0.5,0,0],[0.75,0,0],[0.875,0.25,0],[1,0.5,0],[0.875,0.75,0],[0.75,1,0],[0.5,1,0],[0.125,0.75,0]];pointerEvents=1;shape=mxgraph.cisco_safe.compositeIcon;bgIcon=ellipse;resIcon=mxgraph.cisco_safe.design.user;" vertex="1" parent="1">
          <mxGeometry x="120" y="190" width="50" height="50" as="geometry" />
        </mxCell>
        <mxCell id="hZaEi578BDS51XSkTux4-21" style="edgeStyle=orthogonalEdgeStyle;rounded=0;orthogonalLoop=1;jettySize=auto;html=1;" edge="1" parent="1" source="hZaEi578BDS51XSkTux4-2" target="hZaEi578BDS51XSkTux4-20">
          <mxGeometry relative="1" as="geometry" />
        </mxCell>
        <mxCell id="hZaEi578BDS51XSkTux4-2" value="S3" style="outlineConnect=0;dashed=0;verticalLabelPosition=bottom;verticalAlign=top;align=center;html=1;shape=mxgraph.aws3.s3;fillColor=#E05243;gradientColor=none;" vertex="1" parent="1">
          <mxGeometry x="320" y="168.5" width="76.5" height="93" as="geometry" />
        </mxCell>
        <mxCell id="hZaEi578BDS51XSkTux4-7" value="Poesias-uploads" style="whiteSpace=wrap;html=1;" vertex="1" parent="1">
          <mxGeometry x="308.25" y="110" width="100" height="50" as="geometry" />
        </mxCell>
        <mxCell id="hZaEi578BDS51XSkTux4-8" value="Lamda Function" style="outlineConnect=0;dashed=0;verticalLabelPosition=bottom;verticalAlign=top;align=center;html=1;shape=mxgraph.aws3.lambda;fillColor=#F58534;gradientColor=none;" vertex="1" parent="1">
          <mxGeometry x="610" y="168.5" width="76.5" height="91.5" as="geometry" />
        </mxCell>
        <mxCell id="hZaEi578BDS51XSkTux4-9" style="edgeStyle=orthogonalEdgeStyle;rounded=0;orthogonalLoop=1;jettySize=auto;html=1;entryX=0;entryY=0.5;entryDx=0;entryDy=0;entryPerimeter=0;dashed=1;" edge="1" parent="1" source="hZaEi578BDS51XSkTux4-2" target="hZaEi578BDS51XSkTux4-8">
          <mxGeometry relative="1" as="geometry" />
        </mxCell>
        <mxCell id="hZaEi578BDS51XSkTux4-10" value="trigger: &quot;objectCreated&quot;" style="edgeLabel;html=1;align=center;verticalAlign=middle;resizable=0;points=[];" vertex="1" connectable="0" parent="hZaEi578BDS51XSkTux4-9">
          <mxGeometry x="-0.0459" y="2" relative="1" as="geometry">
            <mxPoint as="offset" />
          </mxGeometry>
        </mxCell>
        <mxCell id="hZaEi578BDS51XSkTux4-26" style="edgeStyle=orthogonalEdgeStyle;rounded=0;orthogonalLoop=1;jettySize=auto;html=1;dashed=1;" edge="1" parent="1" source="hZaEi578BDS51XSkTux4-15">
          <mxGeometry relative="1" as="geometry">
            <mxPoint x="648.25" y="280" as="targetPoint" />
          </mxGeometry>
        </mxCell>
        <mxCell id="hZaEi578BDS51XSkTux4-15" value="- Verifica o&lt;br&gt;&amp;nbsp;tipo de arquivo" style="text;html=1;align=center;verticalAlign=middle;resizable=0;points=[];autosize=1;strokeColor=none;fillColor=none;" vertex="1" parent="1">
          <mxGeometry x="593.25" y="330" width="110" height="40" as="geometry" />
        </mxCell>
        <mxCell id="hZaEi578BDS51XSkTux4-18" value="- Se válido(.pdf, .doc, .png, .jpg):&amp;nbsp;&lt;br&gt;&lt;span style=&quot;background-color: transparent; color: light-dark(rgb(0, 0, 0), rgb(255, 255, 255));&quot;&gt;Move para [S3: poesias-aprovadas]&lt;/span&gt;" style="text;html=1;align=center;verticalAlign=middle;resizable=0;points=[];autosize=1;strokeColor=none;fillColor=none;" vertex="1" parent="1">
          <mxGeometry x="550" y="360" width="220" height="40" as="geometry" />
        </mxCell>
        <mxCell id="hZaEi578BDS51XSkTux4-19" value="- Se inválido:&lt;div&gt;Envia notificação SNS&lt;/div&gt;" style="text;html=1;align=center;verticalAlign=middle;resizable=0;points=[];autosize=1;strokeColor=none;fillColor=none;" vertex="1" parent="1">
          <mxGeometry x="578.25" y="400" width="140" height="40" as="geometry" />
        </mxCell>
        <mxCell id="hZaEi578BDS51XSkTux4-20" value="S3: poesias-aprovadas" style="outlineConnect=0;dashed=0;verticalLabelPosition=bottom;verticalAlign=top;align=center;html=1;shape=mxgraph.aws3.s3;fillColor=#E05243;gradientColor=none;" vertex="1" parent="1">
          <mxGeometry x="320" y="370" width="76.5" height="93" as="geometry" />
        </mxCell>
        <mxCell id="hZaEi578BDS51XSkTux4-27" value="SNS" style="outlineConnect=0;dashed=0;verticalLabelPosition=bottom;verticalAlign=top;align=center;html=1;shape=mxgraph.aws3.sns;fillColor=#d80073;fontColor=#ffffff;strokeColor=#A50040;" vertex="1" parent="1">
          <mxGeometry x="680" y="440" width="56.5" height="56.5" as="geometry" />
        </mxCell>
        <mxCell id="hZaEi578BDS51XSkTux4-29" style="edgeStyle=orthogonalEdgeStyle;rounded=0;orthogonalLoop=1;jettySize=auto;html=1;exitX=1;exitY=0.5;exitDx=0;exitDy=0;exitPerimeter=0;" edge="1" parent="1" source="hZaEi578BDS51XSkTux4-28" target="hZaEi578BDS51XSkTux4-27">
          <mxGeometry relative="1" as="geometry" />
        </mxCell>
        <mxCell id="hZaEi578BDS51XSkTux4-28" value="" style="sketch=0;points=[[0,0,0],[0.25,0,0],[0.5,0,0],[0.75,0,0],[1,0,0],[0,1,0],[0.25,1,0],[0.5,1,0],[0.75,1,0],[1,1,0],[0,0.25,0],[0,0.5,0],[0,0.75,0],[1,0.25,0],[1,0.5,0],[1,0.75,0]];points=[[0,0,0],[0.25,0,0],[0.5,0,0],[0.75,0,0],[1,0,0],[0,1,0],[0.25,1,0],[0.5,1,0],[0.75,1,0],[1,1,0],[0,0.25,0],[0,0.5,0],[0,0.75,0],[1,0.25,0],[1,0.5,0],[1,0.75,0]];outlineConnect=0;fontColor=#232F3E;fillColor=#E7157B;strokeColor=#ffffff;dashed=0;verticalLabelPosition=bottom;verticalAlign=top;align=center;html=1;fontSize=12;fontStyle=0;aspect=fixed;shape=mxgraph.aws4.resourceIcon;resIcon=mxgraph.aws4.user_notifications;" vertex="1" parent="1">
          <mxGeometry x="590" y="449.25" width="38" height="38" as="geometry" />
        </mxCell>
      </root>
    </mxGraphModel>
  </diagram>
</mxfile>
